<?xml version="1.0" encoding="UTF-8"?>
<svg id="Layer_1" xmlns="http://www.w3.org/2000/svg" version="1.1" viewBox="0 0 279 177">
  <!-- Generator: Adobe Illustrator 29.0.1, SVG Export Plug-In . SVG Version: 2.1.0 Build 192)  -->
  <defs>
    <style>
      .st0 {
        fill: #fff;
      }
    </style>
  </defs>
  <path class="st0" d="M189.5,22.8c-2.7,2.7-3.5,10.3-4.8,14.1-.4,1.3-.5,2.9-2.3,2.7-2.1-1.2-12.1-2.2-13.1-3.6-.3-.4-.4-.9-.4-1.3.1-3.5,2.8-8.9,3.1-12.9.7-9.7-10.5-12.1-14.1-4.4-2.3,4.8-3.4,14-4.8,19.5-1.7,6.7-5.2,16.8-5.9,23.2-.5,4.1.5,8.1,4.7,9.7,6,2.4,8.5-1.1,10.2-6.3,1.1-3.4,1.5-8.8,2.7-11.6.9-2.3,3.9-.4,5.9.1,1.6.4,8.7,1.5,9.3,2.5.4.6.2,1.5,0,2.2-.6,4.6-3.2,10.2-3.7,14.7-.8,7.1,6.9,10.8,12,6.3,3-2.6,5.4-13.7,6.5-17.9,2-7.4,7.1-25,7-31.8s-7.9-9.5-12.2-5.2h0ZM117,56.2c-8.8-8.8-2.3-25.4,10.8-25.4s9.8,2.9,12.9-2.5c4.3-7.5-2.7-12-9.5-12.6-38.1-3.1-45.1,50.5-12,58.9,5.8,1.5,14,1.4,19.4-1.4,7.7-4,5.4-15.7-4-14.7-1.9.2-3.8,1.5-5.6,1.7-4.4.6-9-.8-12.2-3.9h0ZM72.4,17.6c-15.9,1.5-11.1,28.7,5.8,22.1,11.9-4.7,6.8-23.3-5.8-22.1ZM220.2,32.5c-13.9,1.7-11.5,23.1,2,21.8,14-1.3,11.7-23.5-2-21.8ZM51.6,85.7c.7-4-.5-9.7,0-13.9l.7-.4c3.9,4.8,7.1,10.9,11.1,15.6,3.1,3.6,6.6,6.1,11.1,2.8,5.5-4.1,1.5-9.8-1.3-14-4.1-6.2-9.3-12.9-14-18.7-2.8-3.4-8.1-10.6-11.9-12-4.5-1.7-8.3.3-9.5,4.8-.4,7.3,1.1,16,.3,23.2,0,.4,0,.8-.3,1-.5.4-1.4,0-1.9-.2-5-1.5-10.2-4.9-15.1-6.8-2.8-1.1-5.3-2.5-8.3-1.4-9.2,3.4-1,15.9,2,21.2,1.8,3.3,3.8,6.6,5.8,9.8,2.6,4.3,8,13.3,11.2,16.5,6.7,6.6,16-.5,11.2-8.5l-11.9-17.9c.5-.7.5-.4.9-.3,4,.8,9.3,4.2,13.8,3.9,2.5-.2,5.7-2.6,6.1-5h0ZM77.9,44.6c-4.1.8-5.8,5.3-5.4,9,.5,4.3,4.5,17.1,6.4,21.1,3.4,7,12.6,4.6,13.6-2.3.5-3.6-2.7-14.1-4-18.1-1.7-5.3-3.4-11.2-10.6-9.7h0ZM231.5,60c-5.1,6-5.1,14.1-1.6,20.9,1.8,3.6,8.9,11.2,9.1,14.2.3,4.5-5,4.5-8.1,3.2-6.5-2.6-9.3-14.7-17.5-10.4-6,3.1-3.3,10.5-.2,14.6,9.6,13.1,32,17.9,39.5.4,5.3-12.4-3.7-18-8.7-27.1-1.7-3.1-3-7.7,2.4-6.9,5.7.9,7,13.1,16.2,10.3s1.3-13.6-2.7-17.6c-7.7-7.7-20.6-10.8-28.5-1.6h0ZM210.8,56.1c-1.7.1-4,1.3-5.1,2.5-2.4,2.6-10.1,16.1-11.4,19.5-2.9,8.3,6.2,14.1,12.2,8,1.9-2,11.2-17.2,12.1-19.9,1.8-5.2-2.2-10.7-7.8-10.2h0ZM112.3,98.5c-.7-.7-2.5-.3-3.5-.5-4-1-11.4-11.6-16.8-13.8-9.5-3.8-13.1,9.9-14.9,16.5-.8,3-1.4,8.2-2.5,10.7-.9,2.2-5.8,7.3-7.5,10.2-3.2,5.5-6.6,15-5.7,21.3.5,3.6,3.8,2.1,6.1,1.2-.6-8.1,2-15.5,6.5-22.1,1.6-2.3,5.4-5.9,6.3-7.9,1.1-2.5,1.6-8.1,2.4-11.1.7-2.6,2.9-10.8,4.6-12.4,1.1-1,2.3-.8,3.6-.2,4,2.2,8.5,8.5,12.5,11.4,2.6,1.9,5.6,3.4,8.2.5.9-1,1.6-2.9.6-3.9h0ZM172.3,94.1c5.5-5.3,6.6-6.5,9.8,1.4.8,2.1,1.6,4.6,2.3,6.8.9,3,1.6,9.2,2.6,11.3.7,1.5,3.5,3.8,4.6,5.1,4.3,5.5,8.4,12.7,9,19.8.2,2.6-.2,5.2-.2,7.8,1.4,3.5,4.8,3.4,5.9-.4,2.3-7.5-2.3-19.8-6.5-26.2-1.6-2.4-6-6.8-7-8.7-.8-1.7-1.5-6.4-2.1-8.7-1.4-5-4.3-16.1-9.3-18.2-8.7-3.7-14.6,8.4-20.8,12.5-1.9,1.2-3.2,1.4-5.5,1.3-1.5,3.2.8,6.1,4.2,5.8,4.6-.3,9.7-6.7,12.9-9.8h0ZM155.3,91.5c-8.4-3-17.9-4-26.8-3.6-2.3.1-14.6,1.8-15.8,3-1.1,1,.7,5.2,1.9,5.4,1.5.3,8.6-1.8,11.1-2.1,5.7-.6,12.3-.5,17.9.4,3,.5,5.9,1.4,8.8,2.3.3,0,.5-.1.7-.3.4-.4,2.9-4.5,2.2-5.1h0ZM101.5,120c-6.7.2-6.5,13.4.6,13s6.2-13.3-.6-13ZM161.8,131.3c5,5.4,12.3-2.3,7.8-9-4.8-7.1-13.2,3.2-7.8,9ZM89.7,140.2c-1.2-1.4-9.4-3.2-11.6-3.5-1.3-.2-7.8-.9-8.3,0v4.9c3.1.4,5.9.5,8.9,1.1,2.2.5,6,2.2,7.8,2.3,2.6.2,4.8-2.7,3.1-4.8h0ZM148.7,156.5c-2.7-2.5-5.5,4-10.2,0-1-.9-2.4-2.7-1.7-4.2.3-.7,3.2-3.4,4-4.4,3.2-4.1,6.8-9.3-.7-11.1-3.3-.8-14.6-1.2-16.6,1.8-2.3,3.4,3.1,9.2,5.3,11.6.9.9,2.7,1.6,2.6,2.9-.2,2.8-3.9,5.2-6.7,4.6-1.8-.4-2.9-2.7-4.7-1.5-3.6,2.4,2,6.6,4.8,7,4.1.6,6.8-2.2,9.4-4.8,1.3,2.8,5.4,5.1,8.5,4.8,2.7-.3,9-4,6-6.8h0ZM198,136.3c-1.4-1.2-18.1,1.9-19.9,3.8-1.9,1.9.3,4.8,2.4,4.9s6.9-1.9,9.5-2.3c2.9-.5,5.8-.8,8.7-1.2l-.7-5.2ZM84.8,149.2c-3.7,0-14.5,5-15.8,8.5-.9,2.6,1.2,4.2,3.8,3.4,4.1-3.4,8.9-5.5,14.1-6.8,2.4-2,.9-5.1-2-5.1h0ZM182.7,149.1c-1.5.3-2.7,2.7-2.1,4,.7,1.6,3.2,1.7,4.7,2.3,1.6.6,3.2,1.3,4.8,2.2,2.2,1.2,7.1,6.1,9,2.4.5-1,.5-1.6,0-2.7-1.5-2.9-13.1-8.8-16.4-8.1h0Z"/>
  <path class="st0" d="M51.6,85.7c-.4,2.5-3.6,4.9-6.1,5-4.4.3-9.7-3.1-13.8-3.9-.5-.1-.5-.4-.9.3l11.9,17.9c4.7,8-4.5,15.1-11.2,8.5-3.3-3.2-8.6-12.3-11.2-16.5-2-3.2-4-6.5-5.8-9.8-3-5.4-11.2-17.8-2-21.2,3-1.1,5.5.3,8.3,1.4,4.9,1.9,10.1,5.2,15.1,6.8.6.2,1.4.6,1.9.2.4-.3.3-.7.3-1,.9-7.2-.7-15.9-.3-23.2,1.2-4.5,5-6.6,9.5-4.8,3.8,1.5,9.1,8.7,11.9,12,4.7,5.8,9.9,12.5,14,18.7,2.8,4.2,6.8,9.9,1.3,14-4.5,3.3-8,.8-11.1-2.8-4-4.7-7.2-10.8-11.1-15.6l-.7.4c-.5,4.2.7,9.9,0,13.9h0Z"/>
  <path class="st0" d="M189.5,22.8c4.3-4.3,12.1-1.4,12.2,5.2s-5,24.4-7,31.8c-1.1,4.2-3.6,15.3-6.5,17.9-5.1,4.5-12.8.9-12-6.3.5-4.5,3.1-10.2,3.7-14.7,0-.7.3-1.5,0-2.2-.6-1-7.7-2.1-9.3-2.5-1.9-.5-4.9-2.4-5.9-.1-1.2,2.8-1.5,8.2-2.7,11.6-1.7,5.1-4.3,8.7-10.2,6.3-4.1-1.7-5.1-5.7-4.7-9.7.7-6.4,4.2-16.5,5.9-23.2,1.4-5.5,2.5-14.8,4.8-19.5,3.7-7.7,14.9-5.3,14.1,4.4-.3,4-2.9,9.4-3.1,12.9,0,.5,0,.9.4,1.3,1,1.4,11,2.4,13.1,3.6,1.8.2,1.9-1.4,2.3-2.7,1.3-3.8,2.1-11.4,4.8-14.1h0Z"/>
  <path class="st0" d="M231.5,60c7.9-9.2,20.8-6.1,28.5,1.6,4,4,12,14.8,2.7,17.6s-10.5-9.5-16.2-10.3c-5.4-.8-4.1,3.8-2.4,6.9,5,9.1,14,14.6,8.7,27.1-7.5,17.5-29.9,12.8-39.5-.4-3-4.2-5.8-11.5.2-14.6,8.2-4.2,10.9,7.8,17.5,10.4,3.1,1.2,8.4,1.2,8.1-3.2-.2-3-7.3-10.6-9.1-14.2-3.5-6.8-3.5-14.9,1.6-20.9h0Z"/>
  <path class="st0" d="M117,56.2c3.1,3.1,7.8,4.5,12.2,3.9,1.8-.2,3.7-1.5,5.6-1.7,9.3-1,11.6,10.7,4,14.7-5.4,2.8-13.6,2.9-19.4,1.4-33.1-8.4-26.1-62,12-58.9,6.8.6,13.7,5.1,9.5,12.6-3.1,5.5-8.5,2.5-12.9,2.5-13.1,0-19.6,16.5-10.8,25.4h0Z"/>
  <path class="st0" d="M172.3,94.1c-3.2,3.1-8.3,9.5-12.9,9.8-3.4.2-5.7-2.6-4.2-5.8,2.2,0,3.6,0,5.5-1.3,6.2-4,12.1-16.2,20.8-12.5,5,2.1,7.8,13.2,9.3,18.2.7,2.3,1.3,7,2.1,8.7.9,1.9,5.4,6.3,7,8.7,4.2,6.4,8.8,18.6,6.5,26.2-1.1,3.7-4.5,3.8-5.9.4,0-2.6.4-5.2.2-7.8-.6-7.1-4.7-14.3-9-19.8-1.1-1.4-3.9-3.7-4.6-5.1-1-2.1-1.7-8.3-2.6-11.3-.6-2.1-1.4-4.7-2.3-6.8-3.1-7.9-4.2-6.7-9.8-1.4h0Z"/>
  <path class="st0" d="M112.3,98.5c1,1,.3,3-.6,3.9-2.6,2.8-5.6,1.3-8.2-.5-4-2.9-8.5-9.2-12.5-11.4-1.2-.7-2.5-.8-3.6.2-1.8,1.6-4,9.8-4.6,12.4-.8,3-1.3,8.7-2.4,11.1-.9,2-4.8,5.6-6.3,7.9-4.5,6.6-7.1,14-6.5,22.1-2.4.9-5.6,2.4-6.1-1.2-.9-6.3,2.5-15.8,5.7-21.3,1.7-2.9,6.6-8,7.5-10.2,1-2.5,1.6-7.7,2.5-10.7,1.8-6.6,5.4-20.4,14.9-16.5,5.4,2.2,12.8,12.8,16.8,13.8,1,.2,2.8-.2,3.5.5h0Z"/>
  <path class="st0" d="M210.8,56.1c5.5-.5,9.6,5.1,7.8,10.2-.9,2.7-10.1,17.9-12.1,19.9-6,6.1-15.1.3-12.2-8,1.2-3.5,8.9-16.9,11.4-19.5,1.1-1.2,3.5-2.4,5.1-2.5h0Z"/>
  <path class="st0" d="M77.9,44.6c7.2-1.5,8.9,4.5,10.6,9.7,1.2,3.9,4.5,14.5,4,18.1-1,6.9-10.2,9.3-13.6,2.3-1.9-3.9-5.8-16.8-6.4-21.1-.5-3.7,1.3-8.2,5.4-9h0Z"/>
  <path class="st0" d="M148.7,156.5c3,2.8-3.4,6.6-6,6.8-3.1.3-7.2-2.1-8.5-4.8-2.7,2.5-5.3,5.4-9.4,4.8-2.7-.4-8.4-4.6-4.8-7,1.9-1.2,3,1.1,4.7,1.5,2.8.6,6.5-1.9,6.7-4.6,0-1.3-1.8-2-2.6-2.9-2.3-2.4-7.7-8.2-5.3-11.6,2.1-3,13.4-2.6,16.6-1.8,7.5,1.8,3.8,7.1.7,11.1-.7,1-3.7,3.7-4,4.4-.7,1.5.7,3.2,1.7,4.2,4.6,4.1,7.4-2.5,10.2,0h0Z"/>
  <path class="st0" d="M72.4,17.6c12.6-1.2,17.7,17.4,5.8,22.1-16.9,6.6-21.7-20.5-5.8-22.1Z"/>
  <path class="st0" d="M220.2,32.5c13.7-1.7,16,20.5,2,21.8-13.5,1.3-15.9-20.1-2-21.8Z"/>
  <path class="st0" d="M155.3,91.5c.8.7-1.8,4.8-2.2,5.1s-.4.4-.7.3c-2.9-.9-5.8-1.8-8.8-2.3-5.7-.9-12.2-1.1-17.9-.4-2.5.3-9.6,2.4-11.1,2.1-1.2-.2-3-4.4-1.9-5.4,1.1-1.1,13.5-2.8,15.8-3,8.9-.5,18.4.6,26.8,3.6h0Z"/>
  <path class="st0" d="M198,136.3l.7,5.2c-2.9.4-5.9.6-8.7,1.2-2.5.5-7.4,2.4-9.5,2.3s-4.3-2.9-2.4-4.9c1.8-1.8,18.5-4.9,19.9-3.8Z"/>
  <path class="st0" d="M89.7,140.2c1.6,2-.6,4.9-3.1,4.8-1.8-.1-5.6-1.8-7.8-2.3-3.1-.6-5.8-.8-8.9-1.1v-4.9c.5-.8,6.9-.1,8.2,0,2.1.3,10.4,2.1,11.6,3.5h0Z"/>
  <path class="st0" d="M84.8,149.2c3,0,4.4,3.1,2,5.1-5.2,1.3-9.9,3.4-14.1,6.8-2.5.8-4.7-.8-3.8-3.4,1.3-3.5,12.1-8.4,15.8-8.5h0Z"/>
  <path class="st0" d="M161.8,131.3c-5.4-5.8,3-16.1,7.8-9,4.5,6.7-2.8,14.4-7.8,9Z"/>
  <path class="st0" d="M182.7,149.1c3.2-.6,14.8,5.2,16.4,8.1.5,1,.5,1.6,0,2.7-1.9,3.7-6.8-1.2-9-2.4-1.5-.8-3.2-1.5-4.8-2.2-1.5-.6-4-.6-4.7-2.3-.6-1.4.6-3.7,2.1-4h0Z"/>
  <path class="st0" d="M101.5,120c6.8-.2,7.8,12.7.6,13s-7.3-12.8-.6-13Z"/>
</svg>