<?xml version="1.0" encoding="UTF-8"?>
<svg id="Layer_1" xmlns="http://www.w3.org/2000/svg" version="1.1" viewBox="0 0 595.28 841.89">
  <!-- Generator: Adobe Illustrator 29.0.1, SVG Export Plug-In . SVG Version: 2.1.0 Build 192)  -->
  <defs>
    <style>
      .st0 {
        fill: #fff;
      }
    </style>
  </defs>
  <path class="st0" d="M349.52,355.68c-2.74,2.71-3.53,10.29-4.81,14.11-.43,1.29-.53,2.89-2.34,2.71-2.07-1.2-12.11-2.25-13.07-3.61-.27-.39-.37-.85-.35-1.32.12-3.52,2.75-8.9,3.06-12.93.73-9.7-10.47-12.08-14.14-4.43-2.27,4.75-3.43,14.02-4.79,19.52-1.67,6.73-5.18,16.83-5.91,23.25-.46,4.07.55,8.06,4.66,9.73,5.99,2.43,8.55-1.12,10.25-6.26,1.14-3.42,1.5-8.75,2.66-11.58.92-2.27,3.93-.35,5.85.1,1.61.37,8.66,1.53,9.27,2.53.38.62.17,1.49.08,2.17-.56,4.56-3.19,10.25-3.69,14.71-.8,7.12,6.9,10.79,11.99,6.27,2.95-2.62,5.42-13.73,6.54-17.94,1.97-7.44,7.12-24.96,6.98-31.84s-7.89-9.5-12.23-5.2ZM277,389.12c-8.83-8.84-2.32-25.38,10.81-25.38,4.45,0,9.8,2.93,12.92-2.54,4.26-7.47-2.71-12.03-9.46-12.58-38.07-3.13-45.09,50.51-11.97,58.87,5.8,1.46,14,1.41,19.39-1.43,7.69-4.05,5.36-15.72-3.95-14.72-1.86.2-3.8,1.47-5.58,1.71-4.35.58-9.04-.79-12.17-3.91ZM232.39,350.44c-15.95,1.55-11.15,28.7,5.76,22.08,11.92-4.66,6.83-23.31-5.76-22.08ZM380.19,365.37c-13.92,1.72-11.52,23.07,1.99,21.79,13.96-1.32,11.68-23.48-1.99-21.79ZM211.65,418.59c.66-4-.49-9.7,0-13.89l.69-.35c3.94,4.8,7.12,10.93,11.11,15.63,3.05,3.59,6.61,6.06,11.07,2.76,5.51-4.07,1.47-9.79-1.29-13.95-4.09-6.16-9.3-12.91-13.96-18.67-2.75-3.39-8.06-10.56-11.9-12.05-4.49-1.74-8.27.3-9.52,4.83-.45,7.33,1.14,15.99.28,23.2-.05.38,0,.77-.34,1.05-.54.39-1.38,0-1.95-.19-4.98-1.55-10.19-4.85-15.09-6.78-2.79-1.1-5.33-2.51-8.31-1.4-9.16,3.43-.96,15.86,2.02,21.24,1.81,3.28,3.83,6.62,5.81,9.81,2.64,4.26,7.96,13.29,11.25,16.52,6.73,6.61,15.98-.46,11.25-8.49l-11.94-17.91c.49-.69.47-.36.95-.27,4.04.82,9.33,4.21,13.78,3.92,2.48-.16,5.67-2.58,6.08-5.04ZM237.92,377.51c-4.05.84-5.84,5.31-5.37,9.04.54,4.26,4.48,17.14,6.37,21.06,3.38,7.02,12.58,4.56,13.57-2.31.52-3.6-2.73-14.13-3.98-18.06-1.68-5.28-3.43-11.2-10.6-9.73ZM391.52,392.86c-5.14,5.99-5.06,14.11-1.59,20.93,1.81,3.56,8.92,11.21,9.09,14.19.26,4.46-5.03,4.48-8.12,3.24-6.54-2.62-9.26-14.67-17.46-10.44-6.01,3.09-3.29,10.46-.25,14.63,9.58,13.14,32.01,17.85,39.51.36,5.33-12.43-3.71-17.98-8.67-27.07-1.69-3.09-3-7.73,2.41-6.93,5.73.85,6.96,13.13,16.23,10.3s1.32-13.65-2.67-17.62c-7.7-7.67-20.59-10.79-28.49-1.58ZM370.83,388.97c-1.68.15-3.98,1.28-5.13,2.53-2.43,2.63-10.15,16.06-11.37,19.53-2.94,8.34,6.2,14.13,12.2,8.05,1.93-1.95,11.16-17.2,12.08-19.86,1.78-5.17-2.25-10.74-7.78-10.25ZM272.29,431.35c-.68-.68-2.51-.27-3.48-.51-3.95-.99-11.38-11.59-16.78-13.76-9.53-3.83-13.12,9.93-14.95,16.55-.84,3.04-1.43,8.22-2.46,10.74-.91,2.24-5.79,7.27-7.5,10.2-3.19,5.48-6.62,14.96-5.72,21.3.51,3.58,3.81,2.11,6.15,1.19-.57-8.14,2.01-15.49,6.51-22.14,1.55-2.28,5.41-5.93,6.31-7.93,1.11-2.47,1.62-8.11,2.4-11.15.66-2.61,2.88-10.79,4.65-12.36,1.1-.97,2.34-.84,3.57-.16,4.03,2.23,8.54,8.51,12.54,11.41,2.58,1.87,5.57,3.36,8.16.54.89-.97,1.64-2.87.6-3.93ZM332.27,426.98c5.53-5.29,6.62-6.5,9.75,1.42.82,2.07,1.63,4.62,2.26,6.77.87,2.96,1.64,9.16,2.6,11.29.66,1.46,3.49,3.76,4.58,5.14,4.33,5.45,8.44,12.71,9.03,19.79.22,2.61-.21,5.22-.19,7.81,1.43,3.47,4.8,3.37,5.92-.35,2.26-7.51-2.29-19.79-6.49-26.16-1.58-2.4-6.04-6.8-6.95-8.68-.82-1.7-1.45-6.39-2.11-8.66-1.44-4.96-4.28-16.06-9.27-18.16-8.72-3.68-14.64,8.43-20.84,12.48-1.88,1.23-3.24,1.38-5.48,1.28-1.45,3.23.83,6.07,4.24,5.83,4.64-.33,9.69-6.71,12.94-9.82ZM315.3,424.41c-8.4-2.98-17.9-4.05-26.82-3.58-2.26.12-14.63,1.82-15.78,2.96-1.07,1.05.68,5.17,1.92,5.4,1.52.29,8.65-1.83,11.1-2.09,5.71-.61,12.28-.46,17.94.44,3,.48,5.92,1.38,8.8,2.32.32.05.47-.14.67-.33.4-.38,2.92-4.46,2.17-5.13ZM261.49,452.92c-6.73.24-6.5,13.36.61,13.05s6.22-13.29-.61-13.05ZM321.76,464.14c4.97,5.39,12.34-2.33,7.8-9.02-4.82-7.1-13.16,3.21-7.8,9.02ZM249.71,473.04c-1.16-1.43-9.44-3.24-11.57-3.53-1.3-.17-7.76-.85-8.3-.07l.05,4.92c3.07.35,5.84.47,8.88,1.11,2.21.46,6.01,2.18,7.78,2.31,2.56.19,4.81-2.72,3.15-4.75ZM308.71,489.36c-2.74-2.54-5.54,4.01-10.16-.08-1.04-.92-2.4-2.71-1.72-4.17.31-.67,3.23-3.4,3.98-4.36,3.17-4.06,6.79-9.31-.67-11.12-3.26-.79-14.56-1.17-16.63,1.8-2.34,3.38,3.06,9.17,5.32,11.6.86.92,2.69,1.61,2.61,2.91-.16,2.77-3.94,5.22-6.69,4.64-1.77-.37-2.88-2.71-4.74-1.47-3.6,2.41,2.01,6.64,4.75,7.03,4.15.59,6.75-2.25,9.44-4.79,1.3,2.77,5.39,5.12,8.47,4.83,2.68-.26,9.04-4.02,6.03-6.82ZM358.03,469.16c-1.38-1.17-18.14,1.94-19.93,3.77-1.9,1.94.27,4.84,2.43,4.88s6.94-1.85,9.49-2.33c2.89-.55,5.83-.77,8.73-1.16l-.72-5.16ZM244.84,482.1c-3.67.06-14.5,4.95-15.76,8.48-.92,2.57,1.25,4.18,3.75,3.39,4.15-3.35,8.88-5.47,14.05-6.78,2.39-1.97.93-5.14-2.04-5.1ZM342.71,482.03c-1.5.29-2.66,2.66-2.09,4.01.69,1.64,3.23,1.68,4.7,2.27,1.62.65,3.24,1.33,4.78,2.17,2.18,1.2,7.07,6.06,8.97,2.39.55-1.05.55-1.64,0-2.69-1.53-2.91-13.15-8.77-16.35-8.15Z"/>
  <path d="M211.65,418.59c-.41,2.45-3.6,4.87-6.08,5.04-4.45.29-9.74-3.1-13.78-3.92-.47-.1-.46-.42-.95.27l11.94,17.91c4.73,8.03-4.52,15.1-11.25,8.49-3.29-3.24-8.61-12.26-11.25-16.52-1.98-3.19-4-6.52-5.81-9.81-2.97-5.38-11.17-17.81-2.02-21.24,2.98-1.12,5.52.3,8.31,1.4,4.9,1.93,10.11,5.23,15.09,6.78.57.18,1.41.58,1.95.19.35-.28.3-.67.34-1.05.86-7.21-.73-15.87-.28-23.2,1.25-4.53,5.03-6.57,9.52-4.83,3.84,1.49,9.15,8.66,11.9,12.05,4.67,5.76,9.88,12.51,13.96,18.67,2.76,4.16,6.79,9.88,1.29,13.95-4.47,3.3-8.02.83-11.07-2.76-3.98-4.69-7.17-10.83-11.11-15.63l-.69.35c-.49,4.19.66,9.9,0,13.89Z"/>
  <path d="M349.52,355.68c4.34-4.3,12.1-1.38,12.23,5.2s-5,24.4-6.98,31.84c-1.12,4.21-3.59,15.31-6.54,17.94-5.08,4.52-12.78.85-11.99-6.27.5-4.46,3.13-10.16,3.69-14.71.08-.68.3-1.55-.08-2.17-.61-1-7.66-2.15-9.27-2.53-1.92-.45-4.93-2.37-5.85-.1-1.16,2.83-1.52,8.16-2.66,11.58-1.71,5.14-4.26,8.69-10.25,6.26-4.11-1.67-5.13-5.66-4.66-9.73.73-6.42,4.25-16.52,5.91-23.25,1.36-5.5,2.52-14.77,4.79-19.52,3.67-7.66,14.87-5.28,14.14,4.43-.3,4.03-2.94,9.41-3.06,12.93-.02.47.08.93.35,1.32.96,1.36,11,2.4,13.07,3.61,1.81.18,1.91-1.42,2.34-2.71,1.28-3.82,2.07-11.4,4.81-14.11Z"/>
  <path d="M391.52,392.86c7.9-9.2,20.79-6.09,28.49,1.58,3.99,3.97,12.03,14.77,2.67,17.62s-10.51-9.45-16.23-10.3c-5.41-.8-4.1,3.84-2.41,6.93,4.96,9.09,14,14.64,8.67,27.07-7.5,17.48-29.93,12.78-39.51-.36-3.04-4.17-5.76-11.53.25-14.63,8.2-4.22,10.92,7.83,17.46,10.44,3.1,1.24,8.39,1.21,8.12-3.24-.18-2.98-7.28-10.63-9.09-14.19-3.47-6.82-3.55-14.94,1.59-20.93Z"/>
  <path d="M277,389.12c3.12,3.13,7.81,4.49,12.17,3.91,1.78-.24,3.71-1.51,5.58-1.71,9.32-.99,11.64,10.67,3.95,14.72-5.4,2.84-13.59,2.89-19.39,1.43-33.12-8.35-26.1-62,11.97-58.87,6.75.56,13.72,5.11,9.46,12.58-3.12,5.47-8.47,2.54-12.92,2.54-13.12,0-19.64,16.54-10.81,25.38Z"/>
  <path d="M332.27,426.98c-3.25,3.11-8.3,9.49-12.94,9.82-3.41.24-5.69-2.6-4.24-5.83,2.24.09,3.6-.06,5.48-1.28,6.2-4.05,12.12-16.16,20.84-12.48,4.99,2.1,7.83,13.2,9.27,18.16.66,2.26,1.29,6.96,2.11,8.66.9,1.87,5.37,6.28,6.95,8.68,4.2,6.37,8.76,18.65,6.49,26.16-1.12,3.72-4.49,3.82-5.92.35-.03-2.59.4-5.21.19-7.81-.59-7.09-4.7-14.34-9.03-19.79-1.09-1.38-3.92-3.68-4.58-5.14-.96-2.12-1.74-8.32-2.6-11.29-.63-2.15-1.44-4.69-2.26-6.77-3.13-7.93-4.22-6.71-9.75-1.42Z"/>
  <path d="M272.29,431.35c1.04,1.05.29,2.96-.6,3.93-2.59,2.82-5.58,1.33-8.16-.54-4-2.9-8.51-9.18-12.54-11.41-1.23-.68-2.48-.82-3.57.16-1.77,1.57-3.99,9.75-4.65,12.36-.77,3.04-1.29,8.68-2.4,11.15-.9,2-4.76,5.64-6.31,7.93-4.5,6.65-7.08,14-6.51,22.14-2.35.92-5.65,2.39-6.15-1.19-.9-6.34,2.53-15.82,5.72-21.3,1.71-2.93,6.59-7.97,7.5-10.2,1.03-2.52,1.61-7.7,2.46-10.74,1.83-6.62,5.41-20.38,14.95-16.55,5.41,2.17,12.83,12.78,16.78,13.76.97.24,2.8-.17,3.48.51Z"/>
  <path d="M370.83,388.97c5.53-.49,9.56,5.08,7.78,10.25-.92,2.66-10.15,17.91-12.08,19.86-6,6.08-15.14.3-12.2-8.05,1.22-3.46,8.94-16.89,11.37-19.53,1.15-1.25,3.45-2.38,5.13-2.53Z"/>
  <path d="M237.92,377.51c7.17-1.48,8.92,4.45,10.6,9.73,1.25,3.93,4.5,14.46,3.98,18.06-.99,6.87-10.19,9.33-13.57,2.31-1.89-3.92-5.83-16.81-6.37-21.06-.47-3.72,1.31-8.2,5.37-9.04Z"/>
  <path d="M308.71,489.36c3.01,2.8-3.35,6.56-6.03,6.82-3.08.29-7.17-2.06-8.47-4.83-2.69,2.54-5.29,5.38-9.44,4.79-2.74-.39-8.35-4.62-4.75-7.03,1.86-1.25,2.97,1.09,4.74,1.47,2.75.58,6.54-1.88,6.69-4.64.07-1.3-1.76-1.99-2.61-2.91-2.27-2.43-7.67-8.22-5.32-11.6,2.06-2.97,13.37-2.59,16.63-1.8,7.46,1.81,3.83,7.06.67,11.12-.74.95-3.67,3.69-3.98,4.36-.68,1.46.68,3.25,1.72,4.17,4.62,4.09,7.42-2.46,10.16.08Z"/>
  <path d="M232.39,350.44c12.59-1.22,17.68,17.42,5.76,22.08-16.91,6.61-21.7-20.53-5.76-22.08Z"/>
  <path d="M380.19,365.37c13.67-1.68,15.96,20.47,1.99,21.79-13.52,1.28-15.91-20.08-1.99-21.79Z"/>
  <path d="M315.3,424.41c.75.66-1.77,4.75-2.17,5.13-.2.19-.35.38-.67.33-2.88-.94-5.79-1.84-8.8-2.32-5.66-.91-12.23-1.06-17.94-.44-2.45.26-9.59,2.38-11.1,2.09-1.24-.24-2.99-4.35-1.92-5.4,1.15-1.14,13.53-2.84,15.78-2.96,8.92-.47,18.41.6,26.82,3.58Z"/>
  <path d="M358.03,469.16l.72,5.16c-2.9.39-5.85.61-8.73,1.16-2.55.48-7.4,2.37-9.49,2.33s-4.33-2.94-2.43-4.88c1.79-1.83,18.55-4.94,19.93-3.77Z"/>
  <path d="M249.71,473.04c1.65,2.03-.59,4.94-3.15,4.75-1.77-.13-5.57-1.84-7.78-2.31-3.05-.64-5.81-.77-8.88-1.11l-.05-4.92c.54-.78,7-.11,8.3.07,2.13.28,10.4,2.1,11.57,3.53Z"/>
  <path d="M244.84,482.1c2.97-.05,4.43,3.12,2.04,5.1-5.16,1.3-9.9,3.43-14.05,6.78-2.5.79-4.67-.82-3.75-3.39,1.26-3.54,12.09-8.43,15.76-8.48Z"/>
  <path d="M321.76,464.14c-5.36-5.81,2.98-16.12,7.8-9.02,4.54,6.7-2.83,14.41-7.8,9.02Z"/>
  <path d="M342.71,482.03c3.2-.62,14.83,5.23,16.35,8.15.55,1.05.54,1.64,0,2.69-1.9,3.67-6.79-1.2-8.97-2.39-1.53-.84-3.16-1.52-4.78-2.17-1.47-.59-4-.62-4.7-2.27-.57-1.35.58-3.72,2.09-4.01Z"/>
  <path d="M261.49,452.92c6.83-.24,7.82,12.74.61,13.05s-7.34-12.82-.61-13.05Z"/>
</svg>